<mxfile host="app.diagrams.net" modified="2023-12-13T09:02:34.246Z" agent="Mozilla/5.0 (Windows NT 10.0; Win64; x64) AppleWebKit/537.36 (KHTML, like Gecko) Chrome/118.0.5993.731 YaBrowser/23.11.1.731 Yowser/2.5 Safari/537.36" etag="W2JnRXpfL0tPgu9blEEK" version="22.1.8" type="device">
  <diagram name="Страница — 1" id="qGqWXMtqn849wd0iz8d4">
    <mxGraphModel dx="1257" dy="850" grid="1" gridSize="10" guides="1" tooltips="1" connect="1" arrows="1" fold="1" page="1" pageScale="1" pageWidth="827" pageHeight="1169" math="0" shadow="0">
      <root>
        <mxCell id="0" />
        <mxCell id="1" parent="0" />
        <mxCell id="wLN-n8TFvLXmnGHtQkEB-5" value="" style="edgeStyle=orthogonalEdgeStyle;rounded=0;orthogonalLoop=1;jettySize=auto;html=1;" parent="1" source="wLN-n8TFvLXmnGHtQkEB-1" edge="1">
          <mxGeometry relative="1" as="geometry">
            <mxPoint x="400" y="185" as="targetPoint" />
          </mxGeometry>
        </mxCell>
        <mxCell id="wLN-n8TFvLXmnGHtQkEB-1" value="start" style="rounded=1;whiteSpace=wrap;html=1;" parent="1" vertex="1">
          <mxGeometry x="340" y="85" width="120" height="60" as="geometry" />
        </mxCell>
        <mxCell id="wLN-n8TFvLXmnGHtQkEB-8" value="" style="edgeStyle=orthogonalEdgeStyle;rounded=0;orthogonalLoop=1;jettySize=auto;html=1;" parent="1" target="wLN-n8TFvLXmnGHtQkEB-6" edge="1">
          <mxGeometry relative="1" as="geometry">
            <mxPoint x="400" y="190" as="sourcePoint" />
          </mxGeometry>
        </mxCell>
        <mxCell id="wLN-n8TFvLXmnGHtQkEB-9" value="" style="edgeStyle=orthogonalEdgeStyle;rounded=0;orthogonalLoop=1;jettySize=auto;html=1;" parent="1" source="wLN-n8TFvLXmnGHtQkEB-6" target="wLN-n8TFvLXmnGHtQkEB-7" edge="1">
          <mxGeometry relative="1" as="geometry" />
        </mxCell>
        <mxCell id="wLN-n8TFvLXmnGHtQkEB-6" value="count = 0&lt;br&gt;len&amp;nbsp;&lt;span style=&quot;border-color: var(--border-color); font-family: Consolas, &amp;quot;Courier New&amp;quot;, monospace; font-size: 14px;&quot;&gt;=&lt;/span&gt;&lt;span style=&quot;border-color: var(--border-color); font-family: Consolas, &amp;quot;Courier New&amp;quot;, monospace; font-size: 14px;&quot;&gt;stringlist&lt;/span&gt;&lt;span style=&quot;border-color: var(--border-color); font-family: Consolas, &amp;quot;Courier New&amp;quot;, monospace; font-size: 14px;&quot;&gt;.&lt;/span&gt;&lt;span style=&quot;border-color: var(--border-color); font-family: Consolas, &amp;quot;Courier New&amp;quot;, monospace; font-size: 14px;&quot;&gt;Length&lt;/span&gt;&lt;br&gt;&lt;div style=&quot;color: rgb(204, 204, 204); background-color: rgb(31, 31, 31); font-family: Consolas, &amp;quot;Courier New&amp;quot;, monospace; font-size: 14px; line-height: 19px;&quot;&gt;&lt;/div&gt;result =[len]" style="rounded=0;whiteSpace=wrap;html=1;" parent="1" vertex="1">
          <mxGeometry x="260" y="186" width="280" height="60" as="geometry" />
        </mxCell>
        <mxCell id="wLN-n8TFvLXmnGHtQkEB-11" value="" style="edgeStyle=orthogonalEdgeStyle;rounded=0;orthogonalLoop=1;jettySize=auto;html=1;" parent="1" source="wLN-n8TFvLXmnGHtQkEB-7" edge="1">
          <mxGeometry relative="1" as="geometry">
            <mxPoint x="400" y="450" as="targetPoint" />
          </mxGeometry>
        </mxCell>
        <mxCell id="wLN-n8TFvLXmnGHtQkEB-12" value="Yes" style="edgeLabel;html=1;align=center;verticalAlign=middle;resizable=0;points=[];" parent="wLN-n8TFvLXmnGHtQkEB-11" vertex="1" connectable="0">
          <mxGeometry x="-0.1158" y="1" relative="1" as="geometry">
            <mxPoint x="13" y="3" as="offset" />
          </mxGeometry>
        </mxCell>
        <mxCell id="8ntGujPHlmmC0WubKcoj-10" value="" style="edgeStyle=orthogonalEdgeStyle;rounded=0;orthogonalLoop=1;jettySize=auto;html=1;" edge="1" parent="1" source="wLN-n8TFvLXmnGHtQkEB-7" target="8ntGujPHlmmC0WubKcoj-9">
          <mxGeometry relative="1" as="geometry" />
        </mxCell>
        <mxCell id="wLN-n8TFvLXmnGHtQkEB-7" value="i&amp;lt;len" style="rhombus;whiteSpace=wrap;html=1;" parent="1" vertex="1">
          <mxGeometry x="325" y="310" width="150" height="80" as="geometry" />
        </mxCell>
        <mxCell id="wLN-n8TFvLXmnGHtQkEB-15" value="" style="edgeStyle=orthogonalEdgeStyle;rounded=0;orthogonalLoop=1;jettySize=auto;html=1;" parent="1" source="wLN-n8TFvLXmnGHtQkEB-13" target="wLN-n8TFvLXmnGHtQkEB-14" edge="1">
          <mxGeometry relative="1" as="geometry" />
        </mxCell>
        <mxCell id="wLN-n8TFvLXmnGHtQkEB-16" value="Yes" style="edgeLabel;html=1;align=center;verticalAlign=middle;resizable=0;points=[];" parent="wLN-n8TFvLXmnGHtQkEB-15" vertex="1" connectable="0">
          <mxGeometry x="-0.1143" relative="1" as="geometry">
            <mxPoint y="-10" as="offset" />
          </mxGeometry>
        </mxCell>
        <mxCell id="wLN-n8TFvLXmnGHtQkEB-18" value="" style="edgeStyle=orthogonalEdgeStyle;rounded=0;orthogonalLoop=1;jettySize=auto;html=1;" parent="1" source="wLN-n8TFvLXmnGHtQkEB-13" target="wLN-n8TFvLXmnGHtQkEB-24" edge="1">
          <mxGeometry relative="1" as="geometry">
            <mxPoint x="400" y="570" as="targetPoint" />
          </mxGeometry>
        </mxCell>
        <mxCell id="wLN-n8TFvLXmnGHtQkEB-19" value="No" style="edgeLabel;html=1;align=center;verticalAlign=middle;resizable=0;points=[];" parent="wLN-n8TFvLXmnGHtQkEB-18" vertex="1" connectable="0">
          <mxGeometry x="-0.1" y="-4" relative="1" as="geometry">
            <mxPoint x="18" as="offset" />
          </mxGeometry>
        </mxCell>
        <mxCell id="wLN-n8TFvLXmnGHtQkEB-13" value="stringlist[i]&amp;lt;=3" style="rhombus;whiteSpace=wrap;html=1;" parent="1" vertex="1">
          <mxGeometry x="270" y="450" width="260" height="80" as="geometry" />
        </mxCell>
        <mxCell id="8ntGujPHlmmC0WubKcoj-2" value="" style="edgeStyle=orthogonalEdgeStyle;rounded=0;orthogonalLoop=1;jettySize=auto;html=1;" edge="1" parent="1" source="wLN-n8TFvLXmnGHtQkEB-14" target="wLN-n8TFvLXmnGHtQkEB-33">
          <mxGeometry relative="1" as="geometry" />
        </mxCell>
        <mxCell id="wLN-n8TFvLXmnGHtQkEB-14" value="result[count] = stringlist[i]" style="whiteSpace=wrap;html=1;" parent="1" vertex="1">
          <mxGeometry x="570" y="460" width="200" height="60" as="geometry" />
        </mxCell>
        <mxCell id="wLN-n8TFvLXmnGHtQkEB-27" style="edgeStyle=orthogonalEdgeStyle;rounded=0;orthogonalLoop=1;jettySize=auto;html=1;" parent="1" source="wLN-n8TFvLXmnGHtQkEB-24" edge="1">
          <mxGeometry relative="1" as="geometry">
            <mxPoint x="400" y="290" as="targetPoint" />
            <Array as="points">
              <mxPoint x="400" y="790" />
              <mxPoint x="200" y="790" />
              <mxPoint x="200" y="290" />
            </Array>
          </mxGeometry>
        </mxCell>
        <mxCell id="wLN-n8TFvLXmnGHtQkEB-24" value="i = i+1" style="whiteSpace=wrap;html=1;" parent="1" vertex="1">
          <mxGeometry x="340" y="700" width="120" height="60" as="geometry" />
        </mxCell>
        <mxCell id="8ntGujPHlmmC0WubKcoj-4" value="" style="edgeStyle=orthogonalEdgeStyle;rounded=0;orthogonalLoop=1;jettySize=auto;html=1;" edge="1" parent="1" source="wLN-n8TFvLXmnGHtQkEB-33" target="8ntGujPHlmmC0WubKcoj-3">
          <mxGeometry relative="1" as="geometry" />
        </mxCell>
        <mxCell id="wLN-n8TFvLXmnGHtQkEB-33" value="print(result[count])" style="shape=document;whiteSpace=wrap;html=1;boundedLbl=1;" parent="1" vertex="1">
          <mxGeometry x="610" y="545" width="120" height="80" as="geometry" />
        </mxCell>
        <mxCell id="wLN-n8TFvLXmnGHtQkEB-35" value="End&lt;br&gt;" style="rounded=1;whiteSpace=wrap;html=1;" parent="1" vertex="1">
          <mxGeometry x="340" y="840" width="120" height="68" as="geometry" />
        </mxCell>
        <mxCell id="Epx0uRHZH4S2jYrDxIjk-1" value="&lt;font style=&quot;font-size: 17px;&quot;&gt;Метод resultproc&lt;/font&gt;" style="text;whiteSpace=wrap;html=1;" parent="1" vertex="1">
          <mxGeometry x="139" y="99" width="150" height="40" as="geometry" />
        </mxCell>
        <mxCell id="8ntGujPHlmmC0WubKcoj-6" value="" style="edgeStyle=orthogonalEdgeStyle;rounded=0;orthogonalLoop=1;jettySize=auto;html=1;" edge="1" parent="1" source="8ntGujPHlmmC0WubKcoj-3">
          <mxGeometry relative="1" as="geometry">
            <mxPoint x="400" y="790" as="targetPoint" />
            <Array as="points">
              <mxPoint x="670" y="790" />
            </Array>
          </mxGeometry>
        </mxCell>
        <mxCell id="8ntGujPHlmmC0WubKcoj-3" value="count = count +1" style="whiteSpace=wrap;html=1;" vertex="1" parent="1">
          <mxGeometry x="570" y="645" width="200" height="60" as="geometry" />
        </mxCell>
        <mxCell id="8ntGujPHlmmC0WubKcoj-11" value="" style="edgeStyle=orthogonalEdgeStyle;rounded=0;orthogonalLoop=1;jettySize=auto;html=1;entryX=1;entryY=0.5;entryDx=0;entryDy=0;exitX=1.25;exitY=0.35;exitDx=0;exitDy=0;exitPerimeter=0;" edge="1" parent="1" source="8ntGujPHlmmC0WubKcoj-9" target="wLN-n8TFvLXmnGHtQkEB-35">
          <mxGeometry relative="1" as="geometry">
            <mxPoint x="800" y="480" as="sourcePoint" />
            <mxPoint x="680" y="650" as="targetPoint" />
            <Array as="points">
              <mxPoint x="800" y="350" />
              <mxPoint x="800" y="874" />
            </Array>
          </mxGeometry>
        </mxCell>
        <mxCell id="8ntGujPHlmmC0WubKcoj-9" value="" style="shape=waypoint;sketch=0;size=6;pointerEvents=1;points=[];fillColor=default;resizable=0;rotatable=0;perimeter=centerPerimeter;snapToPoint=1;" vertex="1" parent="1">
          <mxGeometry x="780" y="340" width="20" height="20" as="geometry" />
        </mxCell>
      </root>
    </mxGraphModel>
  </diagram>
</mxfile>
